<?xml version="1.0" encoding="utf-8"?>
<!-- Generator: Adobe Illustrator 26.4.0, SVG Export Plug-In . SVG Version: 6.00 Build 0)  -->
<svg version="1.1" id="레이어_1" xmlns="http://www.w3.org/2000/svg" xmlns:xlink="http://www.w3.org/1999/xlink" x="0px"
	 y="0px" viewBox="0 0 193 68" style="enable-background:new 0 0 193 68;" xml:space="preserve">
<style type="text/css">
	.st0{fill:#000000;}
	.st1{fill:#8B92C7;}
	.st2{fill:#BBC3E3;}
	.st3{fill:#1D2087;}
	.st4{fill:none;stroke:#FFFFFF;stroke-width:1.3;stroke-miterlimit:10;}
</style>
<g>
	<g>
		<path class="st0" d="M78.97,63.52l-0.63,2.1h-1.38l2.35-7.42h1.71l2.38,7.42h-1.44l-0.66-2.1H78.97z M81.07,62.49l-0.58-1.83
			c-0.14-0.45-0.26-0.96-0.37-1.39H80.1c-0.11,0.43-0.22,0.95-0.35,1.39l-0.57,1.83H81.07z"/>
		<path class="st0" d="M84.26,64.36c0.29,0.19,0.87,0.4,1.35,0.4c0.59,0,0.85-0.25,0.85-0.6c0-0.36-0.22-0.54-0.87-0.78
			c-1.03-0.35-1.46-0.92-1.46-1.56c0-0.95,0.77-1.67,2-1.67c0.59,0,1.1,0.14,1.41,0.32l-0.27,0.95c-0.22-0.13-0.65-0.31-1.12-0.31
			c-0.48,0-0.74,0.24-0.74,0.57c0,0.34,0.25,0.5,0.92,0.75c0.97,0.34,1.4,0.84,1.41,1.63c0,0.98-0.75,1.68-2.15,1.68
			c-0.64,0-1.22-0.15-1.61-0.37L84.26,64.36z"/>
		<path class="st0" d="M88.79,64.36c0.29,0.19,0.87,0.4,1.35,0.4c0.59,0,0.85-0.25,0.85-0.6c0-0.36-0.22-0.54-0.87-0.78
			c-1.03-0.35-1.46-0.92-1.46-1.56c0-0.95,0.77-1.67,2-1.67c0.59,0,1.1,0.14,1.41,0.32l-0.27,0.95c-0.22-0.13-0.65-0.31-1.12-0.31
			c-0.48,0-0.74,0.24-0.74,0.57c0,0.34,0.25,0.5,0.92,0.75c0.97,0.34,1.4,0.84,1.41,1.63c0,0.98-0.75,1.68-2.15,1.68
			c-0.64,0-1.22-0.15-1.61-0.37L88.79,64.36z"/>
		<path class="st0" d="M94.33,63.32c0.03,0.97,0.78,1.39,1.63,1.39c0.62,0,1.06-0.1,1.47-0.24l0.2,0.92
			c-0.46,0.2-1.09,0.34-1.85,0.34c-1.72,0-2.73-1.07-2.73-2.71c0-1.49,0.89-2.88,2.59-2.88c1.72,0,2.28,1.43,2.28,2.61
			c0,0.25-0.02,0.45-0.04,0.57H94.33z M96.66,62.37c0.01-0.5-0.21-1.31-1.1-1.31c-0.83,0-1.18,0.76-1.23,1.31H96.66z"/>
		<path class="st0" d="M100.52,58.88v1.38h1.27v1.01h-1.27v2.35c0,0.66,0.17,0.99,0.69,0.99c0.24,0,0.37-0.01,0.52-0.06l0.02,1.02
			c-0.2,0.08-0.55,0.14-0.97,0.14c-0.5,0-0.9-0.17-1.15-0.44c-0.29-0.31-0.42-0.8-0.42-1.51v-2.51h-0.75v-1.01h0.75v-1L100.52,58.88
			z"/>
		<path class="st0" d="M106.08,59.34h-2.09V58.2h5.54v1.13h-2.11v6.28h-1.34V59.34z"/>
		<path class="st0" d="M110.44,63.32c0.03,0.97,0.78,1.39,1.63,1.39c0.62,0,1.06-0.1,1.47-0.24l0.2,0.92
			c-0.46,0.2-1.09,0.34-1.85,0.34c-1.72,0-2.73-1.07-2.73-2.71c0-1.49,0.89-2.88,2.59-2.88c1.72,0,2.28,1.43,2.28,2.61
			c0,0.25-0.02,0.45-0.04,0.57H110.44z M112.77,62.37c0.01-0.5-0.21-1.31-1.1-1.31c-0.83,0-1.18,0.76-1.23,1.31H112.77z"/>
		<path class="st0" d="M119,65.45c-0.28,0.13-0.84,0.28-1.5,0.28c-1.65,0-2.73-1.08-2.73-2.74c0-1.61,1.09-2.85,2.95-2.85
			c0.49,0,0.99,0.11,1.29,0.24l-0.24,1.02c-0.22-0.11-0.53-0.21-1.01-0.21c-1.02,0-1.63,0.76-1.62,1.74c0,1.1,0.71,1.73,1.62,1.73
			c0.46,0,0.79-0.1,1.06-0.21L119,65.45z"/>
		<path class="st0" d="M119.99,57.8h1.34v3.19h0.02c0.16-0.25,0.39-0.46,0.66-0.6c0.27-0.15,0.59-0.24,0.92-0.24
			c0.9,0,1.85,0.6,1.85,2.32v3.16h-1.34V62.6c0-0.77-0.28-1.36-1.02-1.36c-0.52,0-0.89,0.35-1.04,0.76
			c-0.04,0.12-0.05,0.26-0.05,0.41v3.21h-1.34V57.8z"/>
		<path class="st0" d="M126.2,61.86c0-0.62-0.02-1.13-0.04-1.59h1.17l0.06,0.8h0.03c0.24-0.42,0.82-0.92,1.7-0.92
			c0.92,0,1.88,0.6,1.88,2.3v3.18h-1.34v-3.03c0-0.77-0.28-1.35-1.01-1.35c-0.53,0-0.9,0.39-1.04,0.79
			c-0.04,0.11-0.07,0.28-0.07,0.43v3.16h-1.34V61.86z"/>
		<path class="st0" d="M134.74,65.74c-1.49,0-2.65-1.03-2.65-2.76c0-1.76,1.14-2.84,2.74-2.84c1.58,0,2.63,1.12,2.63,2.75
			c0,1.97-1.37,2.85-2.71,2.85H134.74z M134.78,64.76c0.76,0,1.29-0.75,1.29-1.84c0-0.84-0.37-1.8-1.28-1.8
			c-0.95,0-1.33,0.94-1.33,1.83c0,1.03,0.51,1.82,1.3,1.82H134.78z"/>
		<path class="st0" d="M138.56,57.8h1.34v7.82h-1.34V57.8z"/>
		<path class="st0" d="M143.67,65.74c-1.49,0-2.65-1.03-2.65-2.76c0-1.76,1.14-2.84,2.74-2.84c1.58,0,2.63,1.12,2.63,2.75
			c0,1.97-1.37,2.85-2.71,2.85H143.67z M143.71,64.76c0.76,0,1.29-0.75,1.29-1.84c0-0.84-0.37-1.8-1.28-1.8
			c-0.95,0-1.33,0.94-1.33,1.83c0,1.03,0.51,1.82,1.3,1.82H143.71z"/>
		<path class="st0" d="M152.28,64.84c0,1.12-0.23,1.93-0.78,2.43c-0.54,0.5-1.32,0.65-2.05,0.65c-0.67,0-1.39-0.15-1.85-0.43
			l0.29-1.02c0.34,0.2,0.9,0.41,1.54,0.41c0.87,0,1.52-0.46,1.52-1.62v-0.46h-0.02c-0.3,0.47-0.84,0.79-1.54,0.79
			c-1.32,0-2.25-1.1-2.25-2.62c0-1.76,1.13-2.83,2.4-2.83c0.82,0,1.28,0.4,1.53,0.84h0.02l0.05-0.71h1.16
			c-0.02,0.36-0.04,0.8-0.04,1.54V64.84z M150.94,62.41c0-0.13-0.01-0.25-0.04-0.36c-0.14-0.5-0.52-0.87-1.09-0.87
			c-0.75,0-1.31,0.66-1.31,1.75c0,0.91,0.46,1.65,1.29,1.65c0.5,0,0.94-0.33,1.09-0.83c0.04-0.13,0.05-0.32,0.05-0.47V62.41z"/>
		<path class="st0" d="M154.56,60.26l0.95,2.87c0.11,0.33,0.23,0.74,0.3,1.03h0.03c0.08-0.3,0.17-0.7,0.28-1.04l0.83-2.86h1.43
			l-1.33,3.65c-0.73,2-1.22,2.89-1.84,3.44c-0.53,0.46-1.08,0.64-1.4,0.68l-0.3-1.13c0.23-0.05,0.5-0.18,0.77-0.37
			c0.25-0.17,0.55-0.48,0.74-0.85c0.04-0.1,0.08-0.18,0.08-0.24c0-0.06-0.01-0.13-0.07-0.26l-1.95-4.92H154.56z"/>
		<path class="st0" d="M167.33,65.28c-0.47,0.18-1.38,0.42-2.35,0.42c-1.24,0-2.19-0.32-2.88-0.99c-0.65-0.63-1.02-1.61-1.02-2.73
			c0.01-2.35,1.65-3.85,4.08-3.85c0.9,0,1.61,0.19,1.95,0.35l-0.29,1.09c-0.4-0.19-0.89-0.32-1.66-0.32c-1.57,0-2.67,0.94-2.67,2.66
			c0,1.69,1.02,2.68,2.55,2.68c0.49,0,0.84-0.07,1.01-0.14v-1.86h-1.29v-1.07h2.59V65.28z"/>
		<path class="st0" d="M168.64,61.99c0-0.73-0.01-1.25-0.04-1.73h1.15l0.05,1.01h0.03c0.26-0.75,0.88-1.13,1.46-1.13
			c0.13,0,0.21,0.01,0.32,0.03v1.26c-0.12-0.02-0.24-0.03-0.4-0.03c-0.63,0-1.08,0.41-1.2,1.02c-0.02,0.12-0.03,0.26-0.03,0.41v2.78
			h-1.34V61.99z"/>
		<path class="st0" d="M174.73,65.74c-1.49,0-2.65-1.03-2.65-2.76c0-1.76,1.14-2.84,2.74-2.84c1.58,0,2.63,1.12,2.63,2.75
			c0,1.97-1.37,2.85-2.71,2.85H174.73z M174.77,64.76c0.76,0,1.29-0.75,1.29-1.84c0-0.84-0.37-1.8-1.28-1.8
			c-0.95,0-1.33,0.94-1.33,1.83c0,1.03,0.51,1.82,1.31,1.82H174.77z"/>
		<path class="st0" d="M183.29,64.01c0,0.64,0.02,1.17,0.04,1.61h-1.16l-0.06-0.8h-0.03c-0.23,0.37-0.75,0.92-1.71,0.92
			c-0.96,0-1.84-0.58-1.84-2.33v-3.15h1.34v2.92c0,0.89,0.28,1.46,0.99,1.46c0.54,0,0.89-0.37,1.02-0.73
			c0.05-0.11,0.08-0.26,0.08-0.42v-3.23h1.34V64.01z"/>
		<path class="st0" d="M184.73,62.04c0-0.7-0.02-1.28-0.04-1.78h1.18l0.06,0.83h0.02c0.39-0.61,1.01-0.95,1.82-0.95
			c1.22,0,2.23,1.06,2.23,2.73c0,1.94-1.21,2.87-2.42,2.87c-0.66,0-1.22-0.29-1.49-0.71h-0.02v2.77h-1.34V62.04z M186.07,63.37
			c0,0.13,0.01,0.25,0.03,0.37c0.14,0.55,0.61,0.95,1.19,0.95c0.85,0,1.35-0.72,1.35-1.77c0-0.95-0.46-1.72-1.32-1.72
			c-0.55,0-1.07,0.41-1.21,1c-0.02,0.11-0.04,0.23-0.04,0.34V63.37z"/>
	</g>
	<g>
		<polygon class="st1" points="20.05,9.37 11.11,6.67 11.11,66.37 20.05,66.37 		"/>
		<polygon class="st2" points="7.25,14.79 0,12.6 0,66.37 7.25,66.37 		"/>
		<polygon class="st3" points="67.13,15.76 23.64,0.48 23.64,66.48 67.13,66.48 		"/>
		<path class="st4" d="M22.43,39.19h9.14c0,0,0.38-0.12,0.55-1.21c0.17-1.1,0.89-8.12,1.4-8.23c0.51-0.11,0.97,4.17,1.18,8.56
			c0,0,0.85,19.32,1.14,19.43c0,0,0.63,1.54,1.06-2.2c0,0,1.69-33.48,2.41-34.14c0,0,0.21-0.66,0.51,1.65c0,0,1.91,24.81,2.46,25.8
			c0,0,0.59,2.09,1.14-0.66c0,0,1.4-14.27,1.65-14.82c0.25-0.55,0.8-1.87,1.44-0.22c0,0,1.14,7.79,1.44,9.44
			c0.29,1.65,1.06,2.31,1.57-0.44c0,0,0.76-7.14,1.1-7.47c0,0,0.89-1.32,1.19,0.22c0,0,0.64,5.71,1.1,6.92
			c0.46,1.21,0.85,1.1,1.18-0.11c0,0,0.72-4.83,0.85-4.72c0,0,0.38-1.21,1.06,2.09c0,0,0.64,1.97,1.1,1.54c0,0,0.42-0.22,0.72-1.32
			c0,0,2.37,0.22,4.44,0.22h5.17"/>
	</g>
	<g>
		<path class="st0" d="M90.83,43.19l-3.37,9.1h-8.8L95.51,8.84h7.34l16.62,43.45h-9.1l-3.43-9.1H90.83z M104.13,35.13l-5.13-14
			l-5.25,14H104.13z"/>
		<path class="st0" d="M192.77,29.19c0,0.16,0.01,0.4,0.03,0.73c0.02,0.33,0.03,0.57,0.03,0.73c0,1.87-0.17,3.61-0.51,5.21
			c-0.34,1.6-0.86,3.11-1.55,4.52c-2.05,4.08-4.84,7.23-8.37,9.44c-3.53,2.22-7.53,3.33-11.98,3.33c-3.28,0-6.32-0.63-9.1-1.88
			c-2.79-1.25-5.29-3.11-7.52-5.58c-1.85-2.07-3.26-4.42-4.24-7.04c-0.97-2.63-1.46-5.41-1.46-8.35c0-3.02,0.59-5.89,1.76-8.61
			c1.17-2.71,2.89-5.19,5.16-7.41c2.15-2.13,4.54-3.71,7.18-4.75c2.63-1.03,5.55-1.55,8.76-1.55c4.67,0,8.71,1.14,12.12,3.43
			c3.4,2.29,6.03,5.63,7.88,10.03h-10.32c-1.25-1.57-2.73-2.75-4.43-3.54c-1.7-0.79-3.61-1.18-5.71-1.18
			c-3.72,0-6.87,1.34-9.46,4.03c-2.59,2.69-3.88,5.95-3.88,9.79c0,3.9,1.31,7.19,3.92,9.86c2.62,2.68,5.83,4.01,9.65,4.01
			c2.64,0,5.05-0.72,7.21-2.15c2.16-1.43,3.76-3.36,4.79-5.79h-17.07v-7.28H192.77z"/>
		<polygon class="st0" points="145.88,8.85 118.38,8.85 118.38,16.44 127.98,16.44 127.98,52.25 136.38,52.25 136.38,30.47
			136.38,16.44 145.88,16.44 		"/>
	</g>
</g>
</svg>
